<?xml version="1.0" encoding="UTF-8" standalone="no"?>
<svg
   width="2811.7515"
   height="4000"
   viewBox="0 0 2811.7515 4000"
   version="1.1"
   id="svg2"
   sodipodi:docname="logo.svg"
   inkscape:version="1.4.2 (f4327f4, 2025-05-13)"
   inkscape:export-filename="logo.svg"
   inkscape:export-xdpi="96"
   inkscape:export-ydpi="96"
   xmlns:inkscape="http://www.inkscape.org/namespaces/inkscape"
   xmlns:sodipodi="http://sodipodi.sourceforge.net/DTD/sodipodi-0.dtd"
   xmlns="http://www.w3.org/2000/svg"
   xmlns:svg="http://www.w3.org/2000/svg">
  <sodipodi:namedview
     id="namedview2"
     pagecolor="#ffffff"
     bordercolor="#000000"
     borderopacity="0.25"
     inkscape:showpageshadow="2"
     inkscape:pageopacity="0.0"
     inkscape:pagecheckerboard="0"
     inkscape:deskcolor="#d1d1d1"
     inkscape:zoom="0.1767767"
     inkscape:cx="1742.3111"
     inkscape:cy="2016.6685"
     inkscape:window-width="2048"
     inkscape:window-height="1209"
     inkscape:window-x="618"
     inkscape:window-y="2152"
     inkscape:window-maximized="1"
     inkscape:current-layer="svg2">
    <inkscape:page
       x="0"
       y="1.8806757e-22"
       width="2811.7515"
       height="4000"
       id="page2"
       margin="0"
       bleed="0" />
  </sodipodi:namedview>
  <defs
     id="defs1">
    <clipPath
       id="a">
      <path
         fill="none"
         d="M 0,0 H 1024 V 1024 H 0 Z"
         id="path1" />
    </clipPath>
  </defs>
  <g
     clip-path="url(#a)"
     fill="none"
     stroke-miterlimit="10"
     font-family="none"
     font-weight="none"
     font-size="none"
     text-anchor="none"
     style="mix-blend-mode:normal"
     id="g2"
     transform="matrix(4.5793997,0,0,4.5793997,-929.61814,-360.77155)">
    <path
       d="M 537.57596,182.79604 C 534.08067,229.27334 549.31662,287.69247 593,306 c 42.29025,-11.19697 -38.83663,-91.01198 40,-137 -28.3877,88.63226 46.25539,63.33623 36.08441,162.01688 C 646.32081,444.26751 704.77661,431.63387 677,516 783.50947,484.84147 627.85547,354.83304 739.89881,299.7643 688.86083,395.80356 848.10708,458.01807 756,564 c -26.60227,30.60959 -87.29391,28.00776 -72,100 102.89848,-20.57472 55.8248,-97.97168 133,-116 -51.62906,42.2123 27.95001,155.63198 -122.94935,210.89871 -74.19263,41.0187 -39.14665,73.71097 45.84816,25.11817 C 705.16059,876.03626 563.30804,844.23464 509.29619,952.25833 455.2439,844.23889 329.3047,876.37518 286,784.01688 c 86.3128,49.82604 117.03626,9.16761 30.05065,-25.11817 C 191.94592,706.52796 267.39758,591.49335 203,548 c 98.89944,19.79398 32.43369,95.31508 129,116 9.9249,-69.66326 -20.96821,-71.31734 -45,-100 C 163.93782,443.11257 336.71817,393.80432 286,299.7643 387.7815,352.9195 245.13695,487.52732 346,516 305.58932,417.6987 380.8845,420.60238 358.96624,331.01688 339.19718,242.69188 363.13878,228.87452 396,198 c 0,0 -21.03326,94.76276 47.35195,106.79604 21.42077,-12.26703 -18.56761,-52.60151 30.22401,-112 26.22996,-31.36481 52.94777,-70.95441 35.72023,-114.014633 1.46027,0.654337 40.34782,16.051549 28.27977,104.014633 z M 459.5,359 c -4.6371,21.23661 -16.56483,85.96346 -22.43861,130.98312 -3.94885,37.38062 -22.96409,34.46822 -24.07827,0 C 413.517,443.04595 410.79467,375.91634 408,318 395.27705,374.71737 363.85496,524.36739 372.86495,543.93247 423.03101,569.98074 491.5422,601.23963 489,743 488.85702,782.50144 485.89349,875.02967 509.29619,908 536.20155,874.44878 532.78557,784.65318 532,743 532,600.00483 597.3307,572.11974 652,543.93247 660.13505,523.03296 626.39612,376.71059 614,318 c -4.92815,61.38903 -7.60557,128.35269 -8.39074,171.98312 1.22992,38.01074 -19.7921,36.6856 -24.07827,0 C 576.67426,448.4141 566.28894,380.66473 562.5,359 c 0,0 -6.84759,113.07644 -9.11481,148.27011 -0.0486,33.5134 -23.98857,34.09944 -24.71475,0 C 522.86834,312.96173 520.39015,307.83697 509.29619,246 c -11.54942,62.53959 -13.44696,67.08609 -18.35738,261.27011 -0.40858,35.43343 -25.43779,32.70652 -25.73163,0 M 384,686 c -6.07801,46.71026 12.53313,62.44381 75,102 0.0356,-18.58986 -26.26179,-44.73153 -27,-102 -1.89202,-56.76053 -38.68008,-88.30347 -75,-95.29469 15.17642,8.57513 33.92776,46.58604 27,95.29469 z m 207,0 c -0.12973,52.7022 -29.10129,84.26165 -29.10129,102 C 624.86389,743.02487 644.76137,726.6684 635,686 620.79404,639.31616 641.43091,600.39127 655.1395,590.70531 619.45804,597.40819 589.95426,632.50948 591,686 Z"
       fill="#e8c16a"
       id="path2"
       sodipodi:nodetypes="ccccccscccccccccccccccccccccccccscccscccccccccccccccc"
       inkscape:export-filename="mtgdologo.svg"
       inkscape:export-xdpi="96"
       inkscape:export-ydpi="96" />
  </g>
</svg>
